HIERARCHY
ROOT Hips
{
	OFFSET 0.00000 0.00000 0.00000
	CHANNELS 6 Xposition Yposition Zposition Zrotation Yrotation Xrotation 
	JOINT LHipJoint
	{
		OFFSET 0 0 0
		CHANNELS 3 Zrotation Yrotation Xrotation
		JOINT LeftHip
		{
			OFFSET 1.53927 -1.56553 0.51726
			CHANNELS 3 Zrotation Yrotation Xrotation
			JOINT LeftKnee
			{
				OFFSET 2.38199 -6.54447 0.00000
				CHANNELS 3 Zrotation Yrotation Xrotation
				JOINT LeftAnkle
				{
					OFFSET 2.35499 -6.47028 0.00000
					CHANNELS 3 Zrotation Yrotation Xrotation
					JOINT LeftToe
					{
						OFFSET 0.13641 -0.37478 1.84251
						CHANNELS 3 Zrotation Yrotation Xrotation
						End Site
						{
							OFFSET 0.00000 -0.00000 0.95212
						}
					}
				}
			}
		}
	}
	JOINT RHipJoint
	{
		OFFSET 0 0 0
		CHANNELS 3 Zrotation Yrotation Xrotation
		JOINT RightHip
		{
			OFFSET -1.43919 -1.56553 0.51726
			CHANNELS 3 Zrotation Yrotation Xrotation
			JOINT RightKnee
			{
				OFFSET -2.34860 -6.45274 0.00000
				CHANNELS 3 Zrotation Yrotation Xrotation
				JOINT RightAnkle
				{
					OFFSET -2.25563 -6.19730 0.00000
					CHANNELS 3 Zrotation Yrotation Xrotation
					JOINT RightToe
					{
						OFFSET -0.19755 -0.54277 1.84912
						CHANNELS 3 Zrotation Yrotation Xrotation
						End Site
						{
							OFFSET -0.00000 -0.00000 0.97032
						}
					}
				}
			}
		}
	}
	JOINT lowerback
	{
		OFFSET 0 0 0
		CHANNELS 3 Zrotation Yrotation Xrotation
		JOINT Chest
		{
			OFFSET -0.06402 1.88434 -0.00445
			CHANNELS 3 Zrotation Yrotation Xrotation
			JOINT Chest2
			{
				OFFSET 0.00756 1.88511 0.04237
				CHANNELS 3 Zrotation Yrotation Xrotation
				JOINT lowerneck
				{
					OFFSET 0 0 0
					CHANNELS 3 Zrotation Yrotation Xrotation
					JOINT Neck
					{
						OFFSET -0.06230 1.34710 0.03308
						CHANNELS 3 Zrotation Yrotation Xrotation
						JOINT Head
						{
							OFFSET -0.02442 1.34501 -0.13654
							CHANNELS 3 Zrotation Yrotation Xrotation
							End Site
							{
								OFFSET -0.00508 1.35584 -0.05075
							}
						}
					}
				}
				JOINT LeftCollar
				{
					OFFSET 0 0 0
					CHANNELS 3 Zrotation Yrotation Xrotation
					JOINT LeftShoulder
					{
						OFFSET 2.76911 0.54460 0.39412
CHANNELS 3 Zrotation Xrotation Yrotation
						JOINT LeftElbow
						{
OFFSET 0 -4.409190 -0.000000
CHANNELS 3 Zrotation Xrotation Yrotation
							JOINT LeftWrist
							{
OFFSET 0 -3.038570 -0.000000
CHANNELS 3 Zrotation Xrotation Yrotation
								JOINT lhand
								{
									OFFSET 0 0 0
CHANNELS 3 Zrotation Xrotation Yrotation
									JOINT LFingers
									{
OFFSET 0 -0.523210 -0.000000
CHANNELS 3 Zrotation Xrotation Yrotation
										End Site
										{
OFFSET 0 -0.421820 -0.000000
										}
									}
								}
								JOINT LThumb
								{
OFFSET 0 0.000000 0.000000
CHANNELS 3 Zrotation Xrotation Yrotation
									End Site
									{
OFFSET 0 -0.428260 0.428260
									}
								}
							}
						}
					}
				}
				JOINT RightCollar
				{
					OFFSET 0 0 0
					CHANNELS 3 Zrotation Yrotation Xrotation
					JOINT RightShoulder
					{
						OFFSET -2.99050 0.75949 0.48975
CHANNELS 3 Zrotation Xrotation Yrotation
						JOINT RightElbow
						{
OFFSET 0 -4.619690 -0.000000
CHANNELS 3 Zrotation Xrotation Yrotation
							JOINT RightWrist
							{
OFFSET 0 -3.093820 -0.000000
CHANNELS 3 Zrotation Xrotation Yrotation
								JOINT rhand
								{
									OFFSET 0 0 0
CHANNELS 3 Zrotation Xrotation Yrotation
									JOINT RFingers
									{
OFFSET 0 -0.500900 -0.000000
CHANNELS 3 Zrotation Xrotation Yrotation
										End Site
										{
OFFSET 0 -0.403840 -0.000000
										}
									}
								}
								JOINT RThumb
								{
OFFSET 0 0.000000 0.000000
CHANNELS 3 Zrotation Xrotation Yrotation
									End Site
									{
OFFSET 0 -0.410000 0.410000
									}
								}
							}
						}
					}
				}
			}
		}
	}
}
MOTION
Frames: 8
Frame Time: 0.008333333333333333
10.120533 15.164661 0.110294 37.177858 -85.624420 -27.497097 0.000000 0.000000 0.000000 -3.612949 -16.303904 -26.826084 4.734246 13.078085 39.661459 0.644456 6.806857 -19.146133 0.688749 -5.305703 -14.782488 0.000000 0.000000 0.000000 0.318149 11.988930 -23.349916 -4.730222 -13.073377 39.643902 -1.725453 0.496836 -24.707912 -0.664778 5.214411 -14.521098 -4.268018 -0.358032 0.790763 -0.293173 -0.598021 -2.216673 2.108761 -0.218890 -2.685533 -4.214081 -4.495557 -7.074340 -3.145197 -5.281684 13.141095 -0.641031 -3.046188 5.152702 0.000000 0.000000 0.000000 20.848526 -43.752332 -35.730264 90.969939 -59.996458 60.839994 -13.668010 32.250291 10.630083 0.000000 0.000000 0.000000 -7.125000 0.000000 0.000000 -27.728864 19.375540 -19.350421 0.000000 0.000000 0.000000 -32.074214 -32.459398 19.466496 -109.587870 -58.499364 -76.878108 10.452355 12.002512 57.397492 0.000000 0.000000 0.000000 7.125000 0.000000 0.000000 89.037214 68.670236 -65.988574
10.120498 15.164683 0.110281 37.169874 -85.623259 -27.489792 0.000000 0.000000 0.000000 -3.613247 -16.304913 -26.825653 4.734138 13.077955 39.660977 0.644367 6.806971 -19.145299 0.688248 -5.303810 -14.777064 0.000000 0.000000 0.000000 0.318447 11.988089 -23.348847 -4.730267 -13.073431 39.644105 -1.725659 0.496408 -24.709536 -0.664733 5.214234 -14.520593 -4.267755 -0.358095 0.792888 -0.293718 -0.598262 -2.217618 2.108082 -0.218969 -2.687700 -4.216342 -4.494171 -7.067321 -3.137990 -5.280951 13.134786 -0.638094 -3.045265 5.149806 0.000000 0.000000 0.000000 20.845478 -43.750797 -35.732592 90.967617 -59.996474 60.837983 -13.667230 32.250573 10.629049 0.000000 0.000000 0.000000 -7.125000 0.000000 0.000000 -27.728591 19.376520 -19.349463 0.000000 0.000000 0.000000 -32.072143 -32.455093 19.466987 -109.592111 -58.498691 -76.881724 10.477366 11.980937 57.412476 0.000000 0.000000 0.000000 7.125000 0.000000 0.000000 89.083842 68.663708 -66.030022
10.120463 15.164706 0.110268 37.161890 -85.622098 -27.482487 0.000000 0.000000 0.000000 -3.613545 -16.305922 -26.825222 4.734030 13.077825 39.660495 0.644278 6.807085 -19.144464 0.687747 -5.301916 -14.771640 0.000000 0.000000 0.000000 0.318745 11.987249 -23.347778 -4.730311 -13.073485 39.644308 -1.725865 0.495979 -24.711160 -0.664689 5.214056 -14.520089 -4.267492 -0.358159 0.795013 -0.294264 -0.598503 -2.218563 2.107403 -0.219048 -2.689866 -4.218604 -4.492785 -7.060301 -3.130783 -5.280218 13.128477 -0.635157 -3.044342 5.146910 0.000000 0.000000 0.000000 20.842429 -43.749262 -35.734921 90.965295 -59.996490 60.835972 -13.666449 32.250856 10.628015 0.000000 0.000000 0.000000 -7.125000 0.000000 0.000000 -27.728318 19.377500 -19.348505 0.000000 0.000000 0.000000 -32.070072 -32.450789 19.467479 -109.596352 -58.498019 -76.885340 10.502377 11.959361 57.427461 0.000000 0.000000 0.000000 7.125000 0.000000 0.000000 89.130469 68.657180 -66.071470
10.120428 15.164728 0.110256 37.153907 -85.620937 -27.475182 0.000000 0.000000 0.000000 -3.613844 -16.306930 -26.824790 4.733923 13.077695 39.660013 0.644189 6.807200 -19.143630 0.687246 -5.300022 -14.766216 0.000000 0.000000 0.000000 0.319044 11.986408 -23.346709 -4.730355 -13.073539 39.644511 -1.726072 0.495551 -24.712784 -0.664645 5.213878 -14.519585 -4.267229 -0.358222 0.797138 -0.294810 -0.598744 -2.219508 2.106724 -0.219128 -2.692033 -4.220866 -4.491398 -7.053282 -3.123577 -5.279485 13.122168 -0.632220 -3.043419 5.144014 0.000000 0.000000 0.000000 20.839381 -43.747727 -35.737249 90.962973 -59.996506 60.833961 -13.665669 32.251138 10.626981 0.000000 0.000000 0.000000 -7.125000 0.000000 0.000000 -27.728045 19.378480 -19.347547 0.000000 0.000000 0.000000 -32.068001 -32.446485 19.467971 -109.600593 -58.497346 -76.888956 10.527388 11.937785 57.442445 0.000000 0.000000 0.000000 7.125000 0.000000 0.000000 89.177097 68.650652 -66.112918
10.120393 15.164750 0.110243 37.145923 -85.619776 -27.467877 0.000000 0.000000 0.000000 -3.614142 -16.307939 -26.824359 4.733815 13.077565 39.659530 0.644100 6.807314 -19.142796 0.686745 -5.298129 -14.760792 0.000000 0.000000 0.000000 0.319342 11.985567 -23.345640 -4.730400 -13.073593 39.644714 -1.726278 0.495123 -24.714408 -0.664600 5.213701 -14.519080 -4.266965 -0.358285 0.799263 -0.295355 -0.598985 -2.220454 2.106045 -0.219207 -2.694199 -4.223127 -4.490012 -7.046262 -3.116370 -5.278753 13.115859 -0.629282 -3.042496 5.141118 0.000000 0.000000 0.000000 20.836333 -43.746191 -35.739577 90.960652 -59.996521 60.831950 -13.664889 32.251420 10.625947 0.000000 0.000000 0.000000 -7.125000 0.000000 0.000000 -27.727772 19.379461 -19.346589 0.000000 0.000000 0.000000 -32.065929 -32.442180 19.468462 -109.604834 -58.496674 -76.892572 10.552399 11.916210 57.457429 0.000000 0.000000 0.000000 7.125000 0.000000 0.000000 89.223725 68.644125 -66.154366
10.120358 15.164772 0.110230 37.137939 -85.618615 -27.460572 0.000000 0.000000 0.000000 -3.614440 -16.308948 -26.823927 4.733707 13.077435 39.659048 0.644012 6.807428 -19.141962 0.686244 -5.296235 -14.755368 0.000000 0.000000 0.000000 0.319640 11.984727 -23.344571 -4.730444 -13.073647 39.644917 -1.726484 0.494695 -24.716032 -0.664556 5.213523 -14.518576 -4.266702 -0.358349 0.801389 -0.295901 -0.599226 -2.221399 2.105367 -0.219286 -2.696365 -4.225389 -4.488626 -7.039243 -3.109163 -5.278020 13.109550 -0.626345 -3.041573 5.138222 0.000000 0.000000 0.000000 20.833285 -43.744656 -35.741905 90.958330 -59.996537 60.829939 -13.664108 32.251703 10.624913 0.000000 0.000000 0.000000 -7.125000 0.000000 0.000000 -27.727500 19.380441 -19.345631 0.000000 0.000000 0.000000 -32.063858 -32.437876 19.468954 -109.609075 -58.496002 -76.896188 10.577410 11.894634 57.472414 0.000000 0.000000 0.000000 7.125000 0.000000 0.000000 89.270352 68.637597 -66.195814
10.120323 15.164794 0.110218 37.129955 -85.617454 -27.453267 0.000000 0.000000 0.000000 -3.614738 -16.309956 -26.823496 4.733599 13.077305 39.658566 0.643923 6.807542 -19.141128 0.685742 -5.294341 -14.749944 0.000000 0.000000 0.000000 0.319938 11.983886 -23.343502 -4.730489 -13.073701 39.645120 -1.726690 0.494267 -24.717656 -0.664511 5.213345 -14.518072 -4.266439 -0.358412 0.803514 -0.296446 -0.599467 -2.222344 2.104688 -0.219365 -2.698532 -4.227650 -4.487240 -7.032223 -3.101957 -5.277287 13.103241 -0.623408 -3.040650 5.135326 0.000000 0.000000 0.000000 20.830236 -43.743121 -35.744233 90.956008 -59.996553 60.827928 -13.663328 32.251985 10.623879 0.000000 0.000000 0.000000 -7.125000 0.000000 0.000000 -27.727227 19.381421 -19.344673 0.000000 0.000000 0.000000 -32.061787 -32.433572 19.469446 -109.613316 -58.495329 -76.899804 10.602421 11.873058 57.487398 0.000000 0.000000 0.000000 7.125000 0.000000 0.000000 89.316980 68.631069 -66.237261
10.120288 15.164817 0.110205 37.121971 -85.616293 -27.445962 0.000000 0.000000 0.000000 -3.615036 -16.310965 -26.823065 4.733491 13.077175 39.658084 0.643834 6.807656 -19.140293 0.685241 -5.292448 -14.744520 0.000000 0.000000 0.000000 0.320236 11.983046 -23.342433 -4.730533 -13.073754 39.645323 -1.726896 0.493838 -24.719280 -0.664467 5.213168 -14.517567 -4.266175 -0.358476 0.805639 -0.296992 -0.599708 -2.223289 2.104009 -0.219445 -2.700698 -4.229912 -4.485854 -7.025204 -3.094750 -5.276555 13.096932 -0.620471 -3.039727 5.132430 0.000000 0.000000 0.000000 20.827188 -43.741586 -35.746562 90.953686 -59.996569 60.825917 -13.662548 32.252267 10.622845 0.000000 0.000000 0.000000 -7.125000 0.000000 0.000000 -27.726954 19.382401 -19.343716 0.000000 0.000000 0.000000 -32.059715 -32.429267 19.469937 -109.617557 -58.494657 -76.903420 10.627431 11.851483 57.502382 0.000000 0.000000 0.000000 7.125000 0.000000 0.000000 89.363608 68.624541 -66.278709
